<svg width="42" height="42" viewBox="0 0 42 42" fill="none" xmlns="http://www.w3.org/2000/svg">
<path d="M11.13 15.1939L4.16222 21L11.13 26.8062C11.2304 26.8886 11.3136 26.99 11.3747 27.1047C11.4358 27.2193 11.4736 27.345 11.4859 27.4743C11.4983 27.6037 11.4848 27.7342 11.4465 27.8583C11.4081 27.9824 11.3455 28.0978 11.2623 28.1976C11.1792 28.2974 11.0771 28.3798 10.9619 28.44C10.8468 28.5002 10.7209 28.537 10.5914 28.5482C10.462 28.5595 10.3316 28.545 10.2077 28.5057C10.0839 28.4663 9.96912 28.4028 9.86995 28.3189L1.99495 21.7564C1.88405 21.664 1.79483 21.5483 1.7336 21.4176C1.67237 21.2869 1.64063 21.1444 1.64062 21C1.64062 20.8557 1.67237 20.7131 1.7336 20.5824C1.79483 20.4517 1.88405 20.3361 1.99495 20.2437L9.86995 13.6812C10.0708 13.5166 10.3286 13.438 10.5872 13.4626C10.8457 13.4872 11.084 13.613 11.2503 13.8126C11.4165 14.0121 11.4971 14.2693 11.4746 14.528C11.452 14.7867 11.3282 15.0261 11.13 15.1939ZM40.0049 20.2437L32.1299 13.6812C32.0308 13.5973 31.916 13.5338 31.7922 13.4944C31.6683 13.455 31.5379 13.4406 31.4085 13.4518C31.2791 13.4631 31.1531 13.4999 31.038 13.5601C30.9228 13.6203 30.8207 13.7026 30.7376 13.8025C30.6544 13.9023 30.5918 14.0176 30.5534 14.1418C30.5151 14.2659 30.5016 14.3964 30.514 14.5257C30.5263 14.6551 30.5641 14.7807 30.6252 14.8954C30.6863 15.0101 30.7695 15.1115 30.87 15.1939L37.8377 21L30.87 26.8062C30.7695 26.8886 30.6863 26.99 30.6252 27.1047C30.5641 27.2193 30.5263 27.345 30.514 27.4743C30.5016 27.6037 30.5151 27.7342 30.5534 27.8583C30.5918 27.9824 30.6544 28.0978 30.7376 28.1976C30.8207 28.2974 30.9228 28.3798 31.038 28.44C31.1531 28.5002 31.2791 28.537 31.4085 28.5482C31.5379 28.5595 31.6683 28.545 31.7922 28.5057C31.916 28.4663 32.0308 28.4028 32.1299 28.3189L40.0049 21.7564C40.1158 21.664 40.2051 21.5483 40.2663 21.4176C40.3275 21.2869 40.3593 21.1444 40.3593 21C40.3593 20.8557 40.3275 20.7131 40.2663 20.5824C40.2051 20.4517 40.1158 20.3361 40.0049 20.2437ZM26.5863 5.64215C26.4646 5.59804 26.3353 5.57837 26.206 5.58428C26.0767 5.59018 25.9498 5.62154 25.8326 5.67655C25.7154 5.73157 25.6102 5.80916 25.523 5.90489C25.4359 6.00061 25.3685 6.11259 25.3246 6.23441L14.8246 35.1094C14.7383 35.3549 14.7527 35.6245 14.8646 35.8594C14.9765 36.0942 15.1768 36.2752 15.4218 36.3629C15.5272 36.4006 15.6381 36.4206 15.75 36.4219C15.9521 36.4219 16.1493 36.3598 16.3148 36.2438C16.4804 36.1279 16.6062 35.9638 16.6753 35.7739L27.1753 6.89886C27.2195 6.77735 27.2393 6.64833 27.2336 6.51915C27.2279 6.38998 27.1968 6.26319 27.1421 6.14603C27.0874 6.02887 27.0102 5.92364 26.9148 5.83633C26.8194 5.74903 26.7078 5.68137 26.5863 5.63722V5.64215Z" fill="#F65606"/>
</svg>
